<svg width="800" height="800" viewBox="0 0 800 800" xmlns="http://www.w3.org/2000/svg" xmlns:xlink="http://www.w3.org/1999/xlink" overflow="hidden"><defs><marker refX="8" refY="3" markerWidth="8" markerHeight="6" markerUnits="strokeWidth" orient="auto" id="ah" overflow="hidden"><path d="M0 0 8 3 0 6Z" fill="#718096"/></marker></defs><rect x="0" y="0" width="800" height="800" fill="#FFFFFF"/><text fill="#1E3A5F" font-family="Segoe UI,Arial,Arial" font-weight="700" font-size="22" text-anchor="middle" x="400" y="38">The Hohfeldian Octad: D₄ Gauge Group</text><text fill="#718096" font-family="Segoe UI,Arial,Arial" font-size="13" text-anchor="middle" x="400" y="60">The symmetry group of moral / legal relations</text><line x1="400" y1="170" x2="400" y2="650" stroke="#1E3A5F" stroke-width="1.8" opacity="0.5"/><text fill="#1E3A5F" font-family="Segoe UI,Arial,Arial" font-style="italic" font-size="10" x="412" y="404">correlative</text><line x1="569.7" y1="240.3" x2="230.3" y2="579.7" stroke="#F39C12" stroke-width="1.8" opacity="0.5"/><text fill="#F39C12" font-family="Segoe UI,Arial,Arial" font-style="italic" font-size="10" x="412" y="404">correlative</text><line x1="640" y1="410" x2="160" y2="410" stroke="#27AE60" stroke-width="1.8" opacity="0.5"/><text fill="#27AE60" font-family="Segoe UI,Arial,Arial" font-style="italic" font-size="10" x="412" y="404">correlative</text><line x1="569.7" y1="579.7" x2="230.3" y2="240.3" stroke="#C0392B" stroke-width="1.8" opacity="0.5"/><text fill="#C0392B" font-family="Segoe UI,Arial,Arial" font-style="italic" font-size="10" x="412" y="404">correlative</text><line x1="400" y1="170" x2="160" y2="410" stroke="#718096" stroke-width="1.2" stroke-dasharray="6 4" opacity="0.5"/><line x1="400" y1="650" x2="640" y2="410" stroke="#718096" stroke-width="1.2" stroke-dasharray="6 4" opacity="0.5"/><line x1="569.7" y1="240.3" x2="230.3" y2="240.3" stroke="#718096" stroke-width="1.2" stroke-dasharray="6 4" opacity="0.5"/><line x1="230.3" y1="579.7" x2="569.7" y2="579.7" stroke="#718096" stroke-width="1.2" stroke-dasharray="6 4" opacity="0.5"/><text fill="#718096" font-family="Segoe UI,Arial,Arial" font-style="italic" font-size="10" text-anchor="end" x="268" y="304">opposite</text><line x1="400" y1="170" x2="569.7" y2="240.3" stroke="#718096" opacity="0.3"/><line x1="569.7" y1="240.3" x2="640" y2="410" stroke="#718096" opacity="0.3"/><line x1="640" y1="410" x2="569.7" y2="579.7" stroke="#718096" opacity="0.3"/><line x1="569.7" y1="579.7" x2="400" y2="650" stroke="#718096" opacity="0.3"/><line x1="400" y1="650" x2="230.3" y2="579.7" stroke="#718096" opacity="0.3"/><line x1="230.3" y1="579.7" x2="160" y2="410" stroke="#718096" opacity="0.3"/><line x1="160" y1="410" x2="230.3" y2="240.3" stroke="#718096" opacity="0.3"/><line x1="230.3" y1="240.3" x2="400" y2="170" stroke="#718096" opacity="0.3"/><rect x="350" y="150" rx="20" ry="20" width="100" height="40" stroke="#1E3A5F" stroke-width="2" fill="#EEF2F7"/><text fill="#1E3A5F" font-family="Segoe UI,Arial,Arial" font-weight="700" font-size="13" text-anchor="middle" x="400" y="175">Right</text><rect x="519.7" y="220.3" rx="20" ry="20" width="100" height="40" stroke="#F39C12" stroke-width="2" fill="#FEF9E7"/><text fill="#F39C12" font-family="Segoe UI,Arial,Arial" font-weight="700" font-size="13" text-anchor="middle" x="569.7" y="245.3">Power</text><rect x="590" y="390" rx="20" ry="20" width="100" height="40" stroke="#27AE60" stroke-width="2" fill="#EAFAF1"/><text fill="#27AE60" font-family="Segoe UI,Arial,Arial" font-weight="700" font-size="13" text-anchor="middle" x="640" y="415">Privilege</text><rect x="519.7" y="559.7" rx="20" ry="20" width="100" height="40" stroke="#C0392B" stroke-width="2" fill="#FDF2F2"/><text fill="#C0392B" font-family="Segoe UI,Arial,Arial" font-weight="700" font-size="13" text-anchor="middle" x="569.7" y="584.7">Immunity</text><rect x="350" y="630" rx="20" ry="20" width="100" height="40" stroke="#1E3A5F" stroke-width="2" fill="#EEF2F7"/><text fill="#1E3A5F" font-family="Segoe UI,Arial,Arial" font-weight="700" font-size="13" text-anchor="middle" x="400" y="655">Duty</text><rect x="180.3" y="559.7" rx="20" ry="20" width="100" height="40" stroke="#F39C12" stroke-width="2" fill="#FEF9E7"/><text fill="#F39C12" font-family="Segoe UI,Arial,Arial" font-weight="700" font-size="13" text-anchor="middle" x="230.3" y="584.7">Liability</text><rect x="110" y="390" rx="20" ry="20" width="100" height="40" stroke="#27AE60" stroke-width="2" fill="#EAFAF1"/><text fill="#27AE60" font-family="Segoe UI,Arial,Arial" font-weight="700" font-size="13" text-anchor="middle" x="160" y="415">No-right</text><rect x="180.3" y="220.3" rx="20" ry="20" width="100" height="40" stroke="#C0392B" stroke-width="2" fill="#FDF2F2"/><text fill="#C0392B" font-family="Segoe UI,Arial,Arial" font-weight="700" font-size="13" text-anchor="middle" x="230.3" y="245.3">Disability</text><path d="M400 115C478.24 114.998 553.275 146.077 608.6 201.4" stroke="#1E3A5F" stroke-width="1.5" fill="none" marker-end="url(#ah)"/><text fill="#1E3A5F" font-family="Segoe UI,Arial,Arial" font-size="11" x="618.6" y="201.4">r (90°)</text><line x1="400" y1="110" x2="400" y2="710" stroke="#C0392B" stroke-dasharray="4 3" opacity="0.4"/><text fill="#C0392B" font-family="Segoe UI,Arial,Arial" font-size="11" opacity="0.7" x="408" y="722">reflection axis s</text><line x1="80" y1="710" x2="130" y2="710" stroke="#1E3A5F" stroke-width="2"/><text fill="#1A202C" font-family="Segoe UI,Arial,Arial" font-size="12" x="140" y="714">Jural correlatives (opposite nodes)</text><line x1="80" y1="734" x2="130" y2="734" stroke="#718096" stroke-width="1.5" stroke-dasharray="6 4"/><text fill="#1A202C" font-family="Segoe UI,Arial,Arial" font-size="12" x="140" y="738">Jural opposites</text><text fill="#1E3A5F" font-family="Segoe UI,Arial,Arial" font-size="12" x="480" y="714">● Right ↔ Duty</text><text fill="#27AE60" font-family="Segoe UI,Arial,Arial" font-size="12" x="480" y="732">● Privilege ↔ No-right</text><text fill="#F39C12" font-family="Segoe UI,Arial,Arial" font-size="12" x="480" y="750">● Power ↔ Liability</text><text fill="#C0392B" font-family="Segoe UI,Arial,Arial" font-size="12" x="480" y="768">● Immunity ↔ Disability</text></svg>