<svg width="800" height="600" viewBox="0 0 800 600" xmlns="http://www.w3.org/2000/svg" xmlns:xlink="http://www.w3.org/1999/xlink" overflow="hidden"><defs><marker refX="4" markerWidth="8" markerHeight="6" markerUnits="strokeWidth" orient="auto" id="arrDown" overflow="hidden"><path d="M0 0 8 0 4 6Z" fill="#1E3A5F"/></marker><marker refX="8" refY="3" markerWidth="8" markerHeight="6" markerUnits="strokeWidth" orient="auto" id="arrRight" overflow="hidden"><path d="M0 0 8 3 0 6Z" fill="#27AE60"/></marker></defs><rect x="0" y="0" width="800" height="600" fill="#FFFFFF"/><text fill="#1E3A5F" font-family="Segoe UI,Arial,Arial" font-weight="700" font-size="22" text-anchor="middle" x="400" y="38">Agent Fiber Bundle E →π M</text><text fill="#718096" font-family="Segoe UI,Arial,Arial" font-size="13" text-anchor="middle" x="400" y="60">Each situation supports a fiber of agent-specific moral states</text><path d="M80 480 84 480.5 88 481.1 92 481.6 96 482.1 100 482.6 104 483.2 108 483.7 112 484.2 116 484.7 120 485.2 124 485.7 128 486.2 132 486.7 136 487.2 140 487.7 144 488.2 148 488.6 152 489.1 156 489.6 160 490 164 490.4 168 490.9 172 491.3 176 491.7 180 492.1 184 492.5 188 492.9 192 493.2 196 493.6 200 493.9 204 494.2 208 494.6 212 494.9 216 495.2 220 495.4 224 495.7 228 496 232 496.2 236 496.4 240 496.6 244 496.8 248 497 252 497.2 256 497.3 260 497.5 264 497.6 268 497.7 272 497.8 276 497.9 280 497.9 284 498 288 498 292 498 296 498 300 498 304 497.9 308 497.9 312 497.8 316 497.7 320 497.7 324 497.5 328 497.4 332 497.3 336 497.1 340 496.9 344 496.8 348 496.6 352 496.3 356 496.1 360 495.9 364 495.6 368 495.3 372 495.1 376 494.8 380 494.5 384 494.1 388 493.8 392 493.5 396 493.1 400 492.7 404 492.3 408 492 412 491.6 416 491.1 420 490.7 424 490.3 428 489.9 432 489.4 436 488.9 440 488.5 444 488 448 487.5 452 487.1 456 486.6 460 486.1 464 485.6 468 485.1 472 484.5 476 484 480 483.5 484 483 488 482.5 492 481.9 496 481.4 500 480.9 504 480.4 508 479.8 512 479.3 516 478.8 520 478.2 524 477.7 528 477.2 532 476.7 536 476.1 540 475.6 544 475.1 548 474.6 552 474.1 556 473.6 560 473.1 564 472.6 568 472.1 572 471.7 576 471.2 580 470.7 584 470.3 588 469.9 592 469.4 596 469 600 468.6 604 468.2 608 467.8 612 467.4 616 467 620 466.7 624 466.3 628 466 632 465.6 636 465.3 640 465 644 464.7 648 464.5 652 464.2 656 464 660 463.7 664 463.5 668 463.3 672 463.1 676 462.9 680 462.8 684 462.6 688 462.5 692 462.4 696 462.3 700 462.2 704 462.1 708 462.1 712 462 716 462 720 462 720 492 80 510Z" fill="#EEF2F7" opacity="0.7"/><path d="M80 480 84 480.5 88 481.1 92 481.6 96 482.1 100 482.6 104 483.2 108 483.7 112 484.2 116 484.7 120 485.2 124 485.7 128 486.2 132 486.7 136 487.2 140 487.7 144 488.2 148 488.6 152 489.1 156 489.6 160 490 164 490.4 168 490.9 172 491.3 176 491.7 180 492.1 184 492.5 188 492.9 192 493.2 196 493.6 200 493.9 204 494.2 208 494.6 212 494.9 216 495.2 220 495.4 224 495.7 228 496 232 496.2 236 496.4 240 496.6 244 496.8 248 497 252 497.2 256 497.3 260 497.5 264 497.6 268 497.7 272 497.8 276 497.9 280 497.9 284 498 288 498 292 498 296 498 300 498 304 497.9 308 497.9 312 497.8 316 497.7 320 497.7 324 497.5 328 497.4 332 497.3 336 497.1 340 496.9 344 496.8 348 496.6 352 496.3 356 496.1 360 495.9 364 495.6 368 495.3 372 495.1 376 494.8 380 494.5 384 494.1 388 493.8 392 493.5 396 493.1 400 492.7 404 492.3 408 492 412 491.6 416 491.1 420 490.7 424 490.3 428 489.9 432 489.4 436 488.9 440 488.5 444 488 448 487.5 452 487.1 456 486.6 460 486.1 464 485.6 468 485.1 472 484.5 476 484 480 483.5 484 483 488 482.5 492 481.9 496 481.4 500 480.9 504 480.4 508 479.8 512 479.3 516 478.8 520 478.2 524 477.7 528 477.2 532 476.7 536 476.1 540 475.6 544 475.1 548 474.6 552 474.1 556 473.6 560 473.1 564 472.6 568 472.1 572 471.7 576 471.2 580 470.7 584 470.3 588 469.9 592 469.4 596 469 600 468.6 604 468.2 608 467.8 612 467.4 616 467 620 466.7 624 466.3 628 466 632 465.6 636 465.3 640 465 644 464.7 648 464.5 652 464.2 656 464 660 463.7 664 463.5 668 463.3 672 463.1 676 462.9 680 462.8 684 462.6 688 462.5 692 462.4 696 462.3 700 462.2 704 462.1 708 462.1 712 462 716 462 720 462" stroke="#1E3A5F" stroke-width="2.5" fill="none"/><text fill="#1E3A5F" font-family="Segoe UI,Arial,Arial" font-weight="700" font-size="18" x="740" y="500">M</text><text fill="#718096" font-family="Segoe UI,Arial,Arial" font-size="11" x="740" y="518">(base)</text><text fill="#1E3A5F" font-family="Segoe UI,Arial,Arial" font-size="13" text-anchor="middle" x="150" y="512.872">s₁</text><circle cx="150" cy="488.872" r="4" fill="#1E3A5F"/><line x1="150" y1="488.872" x2="150" y2="128.872" stroke="#718096" stroke-width="1.2" stroke-dasharray="5 3" opacity="0.6"/><circle cx="150" cy="408.9" r="4" fill="#718096"/><text fill="#718096" font-family="Segoe UI,Arial,Arial" font-size="10" x="160" y="412.9">a₁</text><circle cx="150" cy="318.9" r="5" fill="#C0392B"/><text fill="#C0392B" font-family="Segoe UI,Arial,Arial" font-size="10" x="160" y="322.9">a₂</text><circle cx="150" cy="198.9" r="4" fill="#718096"/><text fill="#718096" font-family="Segoe UI,Arial,Arial" font-size="10" x="160" y="202.9">a₃</text><text fill="#1E3A5F" font-family="Segoe UI,Arial,Arial" font-size="13" text-anchor="middle" x="300" y="521.978">s₂</text><circle cx="300" cy="497.978" r="4" fill="#1E3A5F"/><line x1="300" y1="497.978" x2="300" y2="137.978" stroke="#718096" stroke-width="1.2" stroke-dasharray="5 3" opacity="0.6"/><circle cx="300" cy="398" r="4" fill="#718096"/><text fill="#718096" font-family="Segoe UI,Arial,Arial" font-size="10" x="310" y="402">a₁</text><circle cx="300" cy="288" r="5" fill="#C0392B"/><text fill="#C0392B" font-family="Segoe UI,Arial,Arial" font-size="10" x="310" y="292">a₂</text><circle cx="300" cy="168" r="4" fill="#718096"/><text fill="#718096" font-family="Segoe UI,Arial,Arial" font-size="10" x="310" y="172">a₃</text><text fill="#1E3A5F" font-family="Segoe UI,Arial,Arial" font-size="13" text-anchor="middle" x="450" y="511.294">s₃</text><circle cx="450" cy="487.294" r="4" fill="#1E3A5F"/><line x1="450" y1="487.294" x2="450" y2="127.294" stroke="#718096" stroke-width="1.2" stroke-dasharray="5 3" opacity="0.6"/><circle cx="450" cy="427.3" r="4" fill="#718096"/><text fill="#718096" font-family="Segoe UI,Arial,Arial" font-size="10" x="460" y="431.3">a₁</text><circle cx="450" cy="307.3" r="5" fill="#C0392B"/><text fill="#C0392B" font-family="Segoe UI,Arial,Arial" font-size="10" x="460" y="311.3">a₂</text><circle cx="450" cy="227.3" r="4" fill="#718096"/><text fill="#718096" font-family="Segoe UI,Arial,Arial" font-size="10" x="460" y="231.3">a₃</text><text fill="#1E3A5F" font-family="Segoe UI,Arial,Arial" font-size="13" text-anchor="middle" x="600" y="492.581">s₄</text><circle cx="600" cy="468.581" r="4" fill="#1E3A5F"/><line x1="600" y1="468.581" x2="600" y2="108.581" stroke="#718096" stroke-width="1.2" stroke-dasharray="5 3" opacity="0.6"/><circle cx="600" cy="378.6" r="4" fill="#718096"/><text fill="#718096" font-family="Segoe UI,Arial,Arial" font-size="10" x="610" y="382.6">a₁</text><circle cx="600" cy="268.6" r="5" fill="#C0392B"/><text fill="#C0392B" font-family="Segoe UI,Arial,Arial" font-size="10" x="610" y="272.6">a₂</text><circle cx="600" cy="158.6" r="4" fill="#718096"/><text fill="#718096" font-family="Segoe UI,Arial,Arial" font-size="10" x="610" y="162.6">a₃</text><path d="M150 318.9C210 318.9 240 288 300 288 360 288 390 307.3 450 307.3 510 307.3 540 268.6 600 268.6" stroke="#C0392B" stroke-width="2.2" fill="none"/><text fill="#C0392B" font-family="Segoe UI,Arial,Arial" font-weight="700" font-size="12" x="618" y="260.6">σ: M → E</text><text fill="#C0392B" font-family="Segoe UI,Arial,Arial" font-style="italic" font-size="10" x="618" y="276.6">agent’s moral trajectory</text><line x1="110" y1="160" x2="110" y2="473.9" stroke="#1E3A5F" stroke-width="2" marker-end="url(#arrDown)"/><text fill="#1E3A5F" font-family="Segoe UI,Arial,Arial" font-weight="700" font-size="14" text-anchor="end" x="96" y="317">π</text><text fill="#718096" font-family="Segoe UI,Arial,Arial" font-size="10" text-anchor="end" x="96" y="333">E → M</text><text fill="#1E3A5F" font-family="Segoe UI,Arial,Arial" font-weight="700" font-size="18" x="60" y="100">E</text><text fill="#718096" font-family="Segoe UI,Arial,Arial" font-size="11" x="60" y="118">(total space)</text><text fill="#718096" font-family="Segoe UI,Arial,Arial" font-size="11" text-anchor="middle" x="300" y="127.978">fiber π⁻¹(s)</text><rect x="490" y="520" rx="8" ry="8" width="260" height="60" stroke="#718096" fill="#EEF2F7" opacity="0.8"/><circle cx="506" cy="538" r="4" fill="#718096"/><text fill="#1A202C" font-family="Segoe UI,Arial,Arial" font-size="11" x="518" y="542">Agent moral state</text><circle cx="506" cy="560" r="5" fill="#C0392B"/><text fill="#1A202C" font-family="Segoe UI,Arial,Arial" font-size="11" x="518" y="564">Section point (selected trajectory)</text></svg>