<svg width="800" height="650" viewBox="0 0 800 650" xmlns="http://www.w3.org/2000/svg" xmlns:xlink="http://www.w3.org/1999/xlink" overflow="hidden"><defs><marker refX="7" refY="3" markerWidth="8" markerHeight="6" markerUnits="strokeWidth" orient="auto" id="arrowIn" overflow="hidden"><path d="M0 0 8 3 0 6Z" fill="#1A202C"/></marker><pattern width="6" height="6" patternUnits="userSpaceOnUse" id="hatch" overflow="hidden" patternTransform="matrix(0.707107 0.707107 -0.707107 0.707107 0 0)"><line x1="0" y1="0" x2="0" y2="6" stroke="#1A202C" stroke-width="1.5" opacity="0.5"/></pattern></defs><rect x="0" y="0" width="800" height="650" fill="#FFFFFF"/><text fill="#1E3A5F" font-family="Segoe UI,Arial,Arial" font-weight="700" font-size="20" text-anchor="middle" x="400" y="35">Stratified Moral Space: Four Boundary Types</text><text fill="#718096" font-family="Segoe UI,Arial,Arial" font-size="13" text-anchor="middle" x="400" y="55">Whitney stratification partitions the manifold into regions with distinct moral rules</text><rect x="45" y="75" rx="4" width="530" height="455" stroke="#718096" stroke-width="1.5" fill="#EEF2F7"/><text fill="#718096" font-family="Segoe UI,Arial,Arial" font-size="12" text-anchor="middle" x="310" y="555">Moral dimension 1 (e.g., autonomy)</text><text fill="#718096" font-family="Segoe UI,Arial,Arial" font-size="12" text-anchor="middle" transform="matrix(6.12323e-17 -1 1 6.12323e-17 -277.5 327.5)" x="25" y="302.5">Moral dimension 2 (e.g., welfare)</text><path d="M45 75 280 75 280 260 45 260Z" fill="#DCE8F5" opacity="0.7"/><text fill="#1E3A5F" font-family="Segoe UI,Arial,Arial" font-weight="700" font-size="16" text-anchor="middle" x="162" y="165">S₁</text><text fill="#1A202C" font-family="Segoe UI,Arial,Arial" font-size="12" text-anchor="middle" x="162" y="185">Minor / Child</text><text fill="#718096" font-family="Segoe UI,Arial,Arial" font-size="10" text-anchor="middle" x="162" y="200">(reduced agency)</text><path d="M280 75 575 75 575 260 280 260Z" fill="#C8DDF0" opacity="0.6"/><text fill="#1E3A5F" font-family="Segoe UI,Arial,Arial" font-weight="700" font-size="16" text-anchor="middle" x="427" y="165">S₂</text><text fill="#1A202C" font-family="Segoe UI,Arial,Arial" font-size="12" text-anchor="middle" x="427" y="185">Adult / Full agency</text><rect x="45" y="260" width="510" height="80" fill="#E6F0E6" opacity="0.5"/><text fill="#27AE60" font-family="Segoe UI,Arial,Arial" font-weight="700" font-size="16" text-anchor="middle" x="300" y="305">S₄</text><text fill="#1A202C" font-family="Segoe UI,Arial,Arial" font-size="12" text-anchor="middle" x="300" y="322">Peacetime rules</text><rect x="45" y="340" width="235" height="190" fill="#FDE8E8" opacity="0.6"/><text fill="#C0392B" font-family="Segoe UI,Arial,Arial" font-weight="700" font-size="16" text-anchor="middle" x="162" y="430">S₃</text><text fill="#1A202C" font-family="Segoe UI,Arial,Arial" font-size="12" text-anchor="middle" x="162" y="450">Wartime rules</text><text fill="#718096" font-family="Segoe UI,Arial,Arial" font-size="10" text-anchor="middle" x="162" y="465">(expanded permissions)</text><rect x="380" y="370" rx="3" width="195" height="160" stroke="#1A202C" stroke-width="2" fill="#4A4A5A" opacity="0.85"/><text fill="#FFFFFF" font-family="Segoe UI,Arial,Arial" font-weight="700" font-size="16" text-anchor="middle" x="477" y="440">S₅</text><text fill="#E0E0E0" font-family="Segoe UI,Arial,Arial" font-size="12" text-anchor="middle" x="477" y="460">Irreversible harm</text><text fill="#AAAAAA" font-family="Segoe UI,Arial,Arial" font-size="10" text-anchor="middle" x="477" y="478">(absorbing stratum)</text><line x1="280" y1="75" x2="280" y2="260" stroke="#1E3A5F" stroke-width="3"/><text fill="#1E3A5F" font-family="Segoe UI,Arial,Arial" font-weight="700" font-size="10" text-anchor="middle" x="280" y="252">Age 18</text><path d="M45 340 50 343.1 55 345.7 60 347.5 65 348 70 347.3 75 345.4 80 342.7 85 339.5 90 336.5 95 333.9 100 332.4 105 332 110 332.9 115 334.9 120 337.8 125 340.9 130 344 135 346.3 140 347.7 145 347.9 150 346.8 155 344.7 160 341.8 165 338.6 170 335.6 175 333.4 180 332.2 185 332.2 190 333.4 195 335.7 200 338.7 205 341.9 210 344.7 215 346.9 220 347.9 225 347.7 230 346.3 235 343.9 240 340.9 245 337.7 250 334.9 255 332.9 260 332 265 332.4 270 334 275 336.5" stroke="#C0392B" stroke-width="2.5" fill="none"/><text fill="#C0392B" font-family="Segoe UI,Arial,Arial" font-weight="700" font-size="10" text-anchor="middle" x="162" y="358">War ↔ Peace</text><rect x="374" y="365" width="6" height="170" fill="url(#hatch)"/><rect x="374" y="365" width="205" height="6" fill="url(#hatch)"/><line x1="380" y1="370" x2="380" y2="530" stroke="#1A202C" stroke-width="3"/><line x1="380" y1="370" x2="575" y2="370" stroke="#1A202C" stroke-width="3"/><line x1="355" y1="400" x2="376" y2="400" stroke="#1A202C" stroke-width="1.5" marker-end="url(#arrowIn)"/><line x1="355" y1="440" x2="376" y2="440" stroke="#1A202C" stroke-width="1.5" marker-end="url(#arrowIn)"/><line x1="355" y1="480" x2="376" y2="480" stroke="#1A202C" stroke-width="1.5" marker-end="url(#arrowIn)"/><line x1="383" y1="415" x2="393" y2="425" stroke="#C0392B" stroke-width="2"/><line x1="393" y1="415" x2="383" y2="425" stroke="#C0392B" stroke-width="2"/><line x1="383" y1="455" x2="393" y2="465" stroke="#C0392B" stroke-width="2"/><line x1="393" y1="455" x2="383" y2="465" stroke="#C0392B" stroke-width="2"/><line x1="383" y1="495" x2="393" y2="505" stroke="#C0392B" stroke-width="2"/><line x1="393" y1="495" x2="383" y2="505" stroke="#C0392B" stroke-width="2"/><text fill="#C0392B" font-family="Segoe UI,Arial,Arial" font-size="9" x="397" y="518">no exit</text><text fill="#CCCCCC" font-family="Segoe UI,Arial,Arial" font-weight="700" font-size="10" text-anchor="middle" x="477" y="500">Death / Extinction</text><line x1="420" y1="75" x2="575" y2="350" stroke="#27AE60" stroke-width="2.5" stroke-dasharray="8 5"/><text fill="#27AE60" font-family="Segoe UI,Arial,Arial" font-weight="700" font-size="10" transform="matrix(0.469472 0.882948 -0.882948 0.469472 452.464 -353.027)" x="520" y="200">Budget constraint</text><rect x="595" y="80" rx="6" width="195" height="220" stroke="#718096" stroke-width="1.5" fill="#FFFFFF"/><text fill="#1A202C" font-family="Segoe UI,Arial,Arial" font-weight="700" font-size="13" text-anchor="middle" x="692.5" y="102">Boundary Types</text><line x1="605" y1="110" x2="780" y2="110" stroke="#718096" stroke-width="0.5"/><line x1="610" y1="132" x2="650" y2="132" stroke="#1E3A5F" stroke-width="3"/><text fill="#1A202C" font-family="Segoe UI,Arial,Arial" font-size="11" x="658" y="136">Threshold</text><text fill="#718096" font-family="Segoe UI,Arial,Arial" font-size="9" x="658" y="149">(sharp, legal)</text><path d="M610 170.1 613 170.9 616 174.1 619 177.2 622 177.9 625 175.6 628 172.2 631 170.1 634 171 637 174.1 640 177.2 643 177.9 646 175.6 649 172.1" stroke="#C0392B" stroke-width="2.5" fill="none"/><text fill="#1A202C" font-family="Segoe UI,Arial,Arial" font-size="11" x="658" y="178">Phase transition</text><text fill="#718096" font-family="Segoe UI,Arial,Arial" font-size="9" x="658" y="191">(regime change)</text><line x1="610" y1="216" x2="650" y2="216" stroke="#1A202C" stroke-width="3"/><rect x="610" y="217" width="40" height="6" fill="url(#hatch)"/><text fill="#1A202C" font-family="Segoe UI,Arial,Arial" font-size="11" x="658" y="220">Absorbing</text><text fill="#718096" font-family="Segoe UI,Arial,Arial" font-size="9" x="658" y="233">(irreversible, one-way)</text><line x1="610" y1="258" x2="650" y2="258" stroke="#27AE60" stroke-width="2.5" stroke-dasharray="8 5"/><text fill="#1A202C" font-family="Segoe UI,Arial,Arial" font-size="11" x="658" y="262">Constraint surface</text><text fill="#718096" font-family="Segoe UI,Arial,Arial" font-size="9" x="658" y="275">(soft, resource limit)</text><rect x="595" y="320" rx="6" width="195" height="180" stroke="#718096" stroke-width="1.5" fill="#FFFFFF"/><text fill="#1A202C" font-family="Segoe UI,Arial,Arial" font-weight="700" font-size="13" text-anchor="middle" x="692.5" y="342">Strata</text><line x1="605" y1="350" x2="780" y2="350" stroke="#718096" stroke-width="0.5"/><rect x="610" y="358" rx="2" width="14" height="14" stroke="#718096" stroke-width="0.5" fill="#DCE8F5"/><text fill="#1A202C" font-family="Segoe UI,Arial,Arial" font-size="11" x="632" y="370"><tspan font-weight="700">S₁</tspan> Minor / Child</text><rect x="610" y="384" rx="2" width="14" height="14" stroke="#718096" stroke-width="0.5" fill="#C8DDF0"/><text fill="#1A202C" font-family="Segoe UI,Arial,Arial" font-size="11" x="632" y="396"><tspan font-weight="700">S₂</tspan> Adult / Full agency</text><rect x="610" y="410" rx="2" width="14" height="14" stroke="#718096" stroke-width="0.5" fill="#FDE8E8"/><text fill="#1A202C" font-family="Segoe UI,Arial,Arial" font-size="11" x="632" y="422"><tspan font-weight="700">S₃</tspan> Wartime rules</text><rect x="610" y="436" rx="2" width="14" height="14" stroke="#718096" stroke-width="0.5" fill="#E6F0E6"/><text fill="#1A202C" font-family="Segoe UI,Arial,Arial" font-size="11" x="632" y="448"><tspan font-weight="700">S₄</tspan> Peacetime rules</text><rect x="610" y="462" rx="2" width="14" height="14" stroke="#718096" stroke-width="0.5" fill="#4A4A5A"/><text fill="#1A202C" font-family="Segoe UI,Arial,Arial" font-size="11" x="632" y="474"><tspan font-weight="700">S₅</tspan> Irreversible harm</text></svg>