<svg width="800" height="650" viewBox="0 0 800 650" xmlns="http://www.w3.org/2000/svg" xmlns:xlink="http://www.w3.org/1999/xlink" overflow="hidden"><defs><marker refX="9" refY="3.5" markerWidth="10" markerHeight="7" markerUnits="strokeWidth" orient="auto" id="arrowBlue" overflow="hidden"><path d="M0 0 10 3.5 0 7Z" fill="#1E3A5F"/></marker><marker refX="9" refY="3.5" markerWidth="10" markerHeight="7" markerUnits="strokeWidth" orient="auto" id="arrowRed" overflow="hidden"><path d="M0 0 10 3.5 0 7Z" fill="#C0392B"/></marker><marker refX="9" refY="3.5" markerWidth="10" markerHeight="7" markerUnits="strokeWidth" orient="auto" id="arrowGray" overflow="hidden"><path d="M0 0 10 3.5 0 7Z" fill="#718096"/></marker><marker refX="9" refY="3.5" markerWidth="10" markerHeight="7" markerUnits="strokeWidth" orient="auto" id="arrowAmber" overflow="hidden"><path d="M0 0 10 3.5 0 7Z" fill="#F39C12"/></marker></defs><defs><radialGradient cx="40%" cy="35%" r="60%" id="domeGrad"><stop offset="0" stop-color="#D6E4F0"/><stop offset="0.6" stop-color="#A8C4DE"/><stop offset="1" stop-color="#7A9BB5"/></radialGradient></defs><rect x="0" y="0" width="800" height="650" fill="#FFFFFF"/><text fill="#1E3A5F" font-family="Segoe UI,Arial,Arial" font-weight="700" font-size="20" text-anchor="middle" x="400" y="35">Parallel Transport &amp; Holonomy on the Moral Manifold</text><text fill="#718096" font-family="Segoe UI,Arial,Arial" font-size="13" text-anchor="middle" x="400" y="58">Path-dependent moral reasoning: same obligation, different conclusions depending on the path through moral space</text><ellipse cx="370" cy="350" rx="225" ry="165" fill="#D5DBE3" opacity="0.4"/><path d="M150 340C150 201.333 223.333 142.667 370 164 516.667 142.667 590 201.333 590 340 546 382.667 472.667 398.667 370 388 267.333 398.667 194 382.667 150 340" stroke="#718096" stroke-width="1.5" fill="url(#domeGrad)" opacity="0.85"/><ellipse cx="370" cy="350.667" rx="198" ry="44" stroke="#718096" stroke-width="0.5" fill="none" opacity="0.3"/><ellipse cx="370" cy="313.333" rx="176" ry="40" stroke="#718096" stroke-width="0.5" fill="none" opacity="0.3"/><ellipse cx="370" cy="276" rx="154" ry="36" stroke="#718096" stroke-width="0.5" fill="none" opacity="0.3"/><ellipse cx="370" cy="238.667" rx="132" ry="32" stroke="#718096" stroke-width="0.5" fill="none" opacity="0.3"/><ellipse cx="370" cy="201.333" rx="110" ry="28" stroke="#718096" stroke-width="0.5" fill="none" opacity="0.3"/><path d="M201.5 388 216.3 365.6 230.6 343.2 244.2 320.8 257.3 298.4 269.7 276 281.6 253.6 292.8 231.2 303.4 208.8 313.4 186.4 322.8 164" stroke="#718096" stroke-width="0.5" fill="none" opacity="0.25"/><path d="M294.8 388 301.4 365.6 307.8 343.2 313.9 320.8 319.7 298.4 325.2 276 330.5 253.6 335.5 231.2 340.3 208.8 344.7 186.4 348.9 164" stroke="#718096" stroke-width="0.5" fill="none" opacity="0.25"/><path d="M408.2 388 404.8 365.6 401.6 343.2 398.5 320.8 395.5 298.4 392.7 276 390 253.6 387.5 231.2 385.1 208.8 382.8 186.4 380.7 164" stroke="#718096" stroke-width="0.5" fill="none" opacity="0.25"/><path d="M511.4 388 498.9 365.6 487 343.2 475.5 320.8 464.6 298.4 454.1 276 444.2 253.6 434.8 231.2 425.9 208.8 417.5 186.4 409.6 164" stroke="#718096" stroke-width="0.5" fill="none" opacity="0.25"/><path d="M250 310C323.333 323.333 396.667 316.667 470 290" stroke="#718096" stroke-width="2.5" fill="none" marker-end="url(#arrowGray)"/><path d="M470 290C453.333 246.667 416.667 210 360 180" stroke="#718096" stroke-width="2.5" fill="none" marker-end="url(#arrowGray)"/><path d="M360 180C303.333 226.667 266.667 270 250 310" stroke="#718096" stroke-width="2.5" fill="none" marker-end="url(#arrowGray)"/><text fill="#1A202C" font-family="Segoe UI,Arial,Arial" font-size="12" text-anchor="middle" x="360" y="355">A → B</text><text fill="#1A202C" font-family="Segoe UI,Arial,Arial" font-size="12" x="460" y="235">B → C</text><text fill="#1A202C" font-family="Segoe UI,Arial,Arial" font-size="12" text-anchor="end" x="260" y="245">C → A</text><circle cx="250" cy="310" r="5" stroke="#FFFFFF" stroke-width="1.5" fill="#1E3A5F"/><text fill="#1E3A5F" font-family="Segoe UI,Arial,Arial" font-weight="700" font-size="14" text-anchor="middle" x="250" y="298">A</text><circle cx="470" cy="290" r="5" stroke="#FFFFFF" stroke-width="1.5" fill="#1E3A5F"/><text fill="#1E3A5F" font-family="Segoe UI,Arial,Arial" font-weight="700" font-size="14" text-anchor="middle" x="470" y="278">B</text><circle cx="360" cy="180" r="5" stroke="#FFFFFF" stroke-width="1.5" fill="#1E3A5F"/><text fill="#1E3A5F" font-family="Segoe UI,Arial,Arial" font-weight="700" font-size="14" text-anchor="middle" x="360" y="168">C</text><line x1="250" y1="310" x2="285.4" y2="267.9" stroke="#1E3A5F" stroke-width="3.5" marker-end="url(#arrowBlue)"/><text fill="#1E3A5F" font-family="Segoe UI,Arial,Arial" font-weight="700" font-size="11" x="290.4" y="262.9">Original Oᵞ</text><line x1="360" y1="315" x2="388.3" y2="286.7" stroke="#F39C12" stroke-width="2.5" marker-end="url(#arrowAmber)" opacity="0.8"/><line x1="470" y1="290" x2="506.9" y2="264.2" stroke="#F39C12" stroke-width="2.5" marker-end="url(#arrowAmber)" opacity="0.8"/><line x1="360" y1="180" x2="402.3" y2="164.6" stroke="#F39C12" stroke-width="2.5" marker-end="url(#arrowAmber)" opacity="0.8"/><line x1="250" y1="310" x2="301.7" y2="291.2" stroke="#C0392B" stroke-width="3.5" marker-end="url(#arrowRed)"/><text fill="#C0392B" font-family="Segoe UI,Arial,Arial" font-weight="700" font-size="11" x="306.7" y="306.2">Returned Oᵞ'</text><path d="M272.5 283.2C277.204 287.137 280.79 292.241 282.9 298" stroke="#F39C12" stroke-width="2" stroke-dasharray="4 3" fill="none"/><text fill="#F39C12" font-family="Segoe UI,Arial,Arial" font-weight="700" font-size="14" text-anchor="middle" x="291" y="281.3">α</text><rect x="610" y="100" rx="6" width="185" height="155" stroke="#1E3A5F" fill="#EEF2F7" opacity="0.9"/><text fill="#1E3A5F" font-family="Segoe UI,Arial,Arial" font-weight="700" font-size="12" x="620" y="120">Point Labels</text><text fill="#1A202C" font-family="Segoe UI,Arial,Arial" font-size="11" x="625" y="145"><tspan font-weight="700">A</tspan> = Initial situation</text><text fill="#1A202C" font-family="Segoe UI,Arial,Arial" font-size="11" x="625" y="167"><tspan font-weight="700">B</tspan> = After deliberation path 1</text><text fill="#1A202C" font-family="Segoe UI,Arial,Arial" font-size="11" x="625" y="189"><tspan font-weight="700">C</tspan> = After deliberation path 2</text><text fill="#F39C12" font-family="Segoe UI,Arial,Arial" font-weight="700" font-size="11" x="620" y="225">Holonomy angle α</text><text fill="#1A202C" font-family="Segoe UI,Arial,Arial" font-size="10" x="620" y="242">= rotation after full circuit</text><rect x="45" y="500" rx="6" width="340" height="80" stroke="#718096" fill="#EEF2F7"/><text fill="#1A202C" font-family="Segoe UI,Arial,Arial" font-weight="700" font-size="12" x="60" y="520">Legend</text><line x1="60" y1="538" x2="95" y2="538" stroke="#1E3A5F" stroke-width="3" marker-end="url(#arrowBlue)"/><text fill="#1A202C" font-family="Segoe UI,Arial,Arial" font-size="11" x="105" y="542">Original obligation vector</text><line x1="60" y1="558" x2="95" y2="558" stroke="#F39C12" stroke-width="2.5" marker-end="url(#arrowAmber)"/><text fill="#1A202C" font-family="Segoe UI,Arial,Arial" font-size="11" x="105" y="562">Parallel-transported vector</text><line x1="265" y1="538" x2="300" y2="538" stroke="#C0392B" stroke-width="3" marker-end="url(#arrowRed)"/><text fill="#1A202C" font-family="Segoe UI,Arial,Arial" font-size="11" x="310" y="542">Returned vector</text><text fill="#718096" font-family="Segoe UI,Arial,Arial" font-style="italic" font-size="12" text-anchor="middle" x="400" y="615">Curvature Rᵞₕᵨσ ≠ 0 ⇒ parallel transport is path-dependent ⇒ moral conclusions depend on deliberation order</text></svg>